<svg xmlns="http://www.w3.org/2000/svg" viewBox="0 0 512 512">
  <defs>
    <linearGradient id="grad" x1="0%" y1="0%" x2="100%" y2="100%">
      <stop offset="0%" style="stop-color:#2563eb;stop-opacity:1" />
      <stop offset="100%" style="stop-color:#4f46e5;stop-opacity:1" />
    </linearGradient>
  </defs>
  <rect width="512" height="512" rx="128" fill="url(#grad)" />
  <path d="M412.9 237c1.7-10.4 2.6-21.1 2.6-32.1 0-82.5-52.6-152.9-125.7-179.9-13.6-5-28-8.5-42.9-10.2-2.1-.2-4.2-.4-6.4-.4-106 0-192 86-192 192 0 10.7.9 21.2 2.5 31.4C22.6 261.2 0 295.6 0 334c0 74.3 80.5 137.9 199.1 163 17.5 3.7 35.7 5.7 54.4 5.7s37-1.9 54.4-5.7C427.5 471.9 508 408.3 508 334c0-38.8-23.1-73.4-51.7-96.1l-43.4-.9zM256 368c-17.7 0-32-14.3-32-32s14.3-32 32-32 32 14.3 32 32-14.3 32-32 32zm0-96c-17.7 0-32-14.3-32-32s14.3-32 32-32 32 14.3 32 32-14.3 32-32 32z" fill="none"/>
  <path fill="white" d="M376 192h-40.5c-6.8 0-12.9 3.4-16.5 9.1l-31.8 50.8-38.1-95.2c-3.2-8-12.7-11.4-20.5-7.3-3.6 1.9-6.4 5.2-7.5 9.1l-31.5 105-25.1-50.2c-3.2-6.4-9.8-10.5-17-10.5H96c-8.8 0-16 7.2-16 16s7.2 16 16 16h45.5l32.2 64.5c3.2 6.4 9.8 10.5 17 10.5 6.6 0 12.8-3.5 16.2-9.2l31.4-104.5 39 97.5c3.3 8.3 12.9 12.3 21.2 9 3.5-1.4 6.5-4.1 8.2-7.5l38.2-61.1H376c8.8 0 16-7.2 16-16s-7.2-16-16-16z"/>
</svg>